<svg xmlns="http://www.w3.org/2000/svg" width="210" height="60" viewBox="0 0 210 60" fill="none">
<g clip-path="url(#clip0)">
<path d="M30.0447 59.8583C46.5104 59.8583 59.8584 46.5103 59.8584 30.0446C59.8584 13.579 46.5104 0.23098 30.0447 0.23098C13.5791 0.23098 0.231064 13.579 0.231064 30.0446C0.231064 46.5103 13.5791 59.8583 30.0447 59.8583Z" fill="white"/>
<path d="M34.3043 17.2658V25.785V34.3043H42.8198V25.785V17.2658H34.3043Z" fill="black"/>
<path d="M25.7851 25.785V17.2658H17.2659V25.785V34.3043V42.8198H25.7851H34.3044V34.3043H25.7851V25.785Z" fill="black"/>
<path d="M34.3043 17.2658V25.785V34.3043H42.8198V25.785V17.2658H34.3043Z" fill="black"/>
<path d="M25.7851 25.785V17.2658H17.2659V25.785V34.3043V42.8198H25.7851H34.3044V34.3043H25.7851V25.785Z" fill="black"/>
<path d="M42.8236 34.3045H34.3043V42.8237H42.8236V34.3045Z" fill="#817AFE"/>
<path d="M76.9864 35.0798V25.2562H81.4323V34.5953C81.4323 37.3382 82.8895 39.1419 85.6323 39.1419C88.3752 39.1419 89.8323 37.3382 89.8323 34.5953V25.2562H94.3044V35.0798C94.3044 39.8015 91.1441 43.204 85.6957 43.204C80.1466 43.204 76.9864 39.8015 76.9864 35.0798Z" fill="white"/>
<path d="M103.196 42.82H98.7876V25.2561H103.196V28.2076C103.785 27.1827 104.635 26.3322 105.66 25.743C106.684 25.1538 107.847 24.8469 109.029 24.8536C113.437 24.8536 116.355 28.0846 116.355 32.5604V42.82H111.883V33.4474C111.883 30.671 110.251 28.83 107.612 28.83C104.974 28.83 103.204 30.6933 103.204 33.4474L103.196 42.82Z" fill="white"/>
<path d="M120.902 17.2697H125.344V42.82H120.902V17.2697Z" fill="white"/>
<path d="M147.667 34.2858V34.7703H133.711C133.886 37.5131 135.898 39.615 138.812 39.615C141.626 39.615 142.77 38.1914 143.083 37.7069H147.458C147.179 39.5106 144.786 43.297 138.812 43.297C133.122 43.297 129.268 39.3429 129.268 34.0659C129.268 28.6137 133.084 24.8311 138.466 24.8311C143.847 24.8311 147.667 28.5541 147.667 34.2858ZM133.848 31.7144H143.016C142.357 29.4783 140.724 28.2448 138.466 28.2448C136.07 28.2411 134.404 29.5268 133.848 31.7106V31.7144Z" fill="white"/>
<path d="M157.558 31.8152H163.323C163.323 29.6984 161.724 28.3456 159.123 28.3456C156.656 28.3456 155.769 29.6649 155.478 30.1158H151.006C151.379 28.2748 153.574 24.8052 159.13 24.8052C164.579 24.8052 167.601 27.6524 167.601 31.8152V37.7518C167.601 38.8288 167.974 39.2425 168.988 39.3506V42.9245H167.601C165.343 42.8909 163.99 42.0562 163.502 40.4947C162.671 41.7804 160.796 43.204 157.811 43.204C153.678 43.204 150.555 40.8785 150.555 37.2673C150.555 33.6562 153.22 31.8152 157.558 31.8152ZM163.323 36.3282V34.8375H158.288C156.205 34.8375 154.934 35.5829 154.934 37.1965C154.934 38.8996 156.533 39.9059 158.754 39.9059C161.24 39.9059 163.323 38.6909 163.323 36.3282Z" fill="white"/>
<path d="M178.181 35.6348C174.328 35.359 171.723 33.5516 171.723 30.1491C171.723 26.851 174.742 24.7677 179.463 24.7677C185.799 24.7677 187.588 28.0323 188.072 29.7317H183.388C183.075 29.359 182.068 28.1367 179.43 28.1367C177.313 28.1367 176.203 28.8298 176.203 29.9069C176.203 30.8795 176.948 31.5056 178.699 31.7479L181.681 32.0609C186.44 32.4746 188.389 34.2969 188.389 37.7516C188.389 41.0497 185.646 43.3081 180.265 43.3081C173.739 43.3081 171.622 39.5218 171.276 37.8932H176.031C176.206 38.3069 177.28 39.8721 180.265 39.8721C182.732 39.8721 183.876 39.0373 183.876 37.9267C183.876 36.8162 183.253 36.1901 181.267 35.9479C180.019 35.8435 179.396 35.7764 178.181 35.6348Z" fill="white"/>
<path d="M196.23 42.82H191.821V17.2697H196.23V28.2075C196.818 27.1826 197.668 26.3322 198.693 25.7429C199.718 25.1537 200.88 24.8468 202.062 24.8535C206.471 24.8535 209.389 28.0846 209.389 32.5603V42.82H204.917V33.4473C204.917 30.6709 203.284 28.8299 200.646 28.8299C198.007 28.8299 196.237 30.6933 196.237 33.4473L196.23 42.82Z" fill="white"/>
</g>
<defs>
<clipPath id="clip0">
<rect width="209.441" height="60" fill="black"/>
</clipPath>
</defs>
</svg>
